<svg width="42" height="15" viewBox="0 0 42 15" fill="none" xmlns="http://www.w3.org/2000/svg">
<path d="M3.50781 14.8353C2.60677 14.8353 1.90365 14.5671 1.39844 14.0306C0.898438 13.489 0.648438 12.6921 0.648438 11.64V9.18689H2.67188V11.5385C2.67188 11.8093 2.6875 12.0593 2.71875 12.2885C2.75521 12.5176 2.82812 12.6999 2.9375 12.8353C3.04688 12.9707 3.21615 13.0385 3.44531 13.0385C3.67448 13.0385 3.84375 12.9733 3.95312 12.8431C4.0625 12.7077 4.13542 12.5202 4.17188 12.2806C4.20833 12.0358 4.22656 11.7468 4.22656 11.4135V0.929077H6.32031V11.3119C6.32031 12.4421 6.07031 13.3119 5.57031 13.9213C5.07552 14.5306 4.38802 14.8353 3.50781 14.8353ZM10.7194 14.8353C10.0058 14.8353 9.4251 14.7025 8.97719 14.4369C8.52927 14.1661 8.20115 13.7598 7.99281 13.2181C7.78448 12.6713 7.68031 11.9812 7.68031 11.1478V0.929077H9.77406V11.1088C9.77406 11.4942 9.78969 11.8327 9.82094 12.1244C9.8574 12.4161 9.94073 12.6426 10.0709 12.8041C10.2011 12.9655 10.4147 13.0463 10.7116 13.0463C11.0084 13.0463 11.222 12.9681 11.3522 12.8119C11.4876 12.6504 11.5709 12.4239 11.6022 12.1322C11.6334 11.8405 11.6491 11.4994 11.6491 11.1088V0.929077H13.7428V11.1478C13.7428 11.9812 13.6386 12.6713 13.4303 13.2181C13.2272 13.7598 12.9017 14.1661 12.4538 14.4369C12.011 14.7025 11.4329 14.8353 10.7194 14.8353ZM17.5716 14.8353C16.9986 14.8353 16.5195 14.7468 16.1341 14.5697C15.7539 14.3874 15.4518 14.1244 15.2278 13.7806C15.0091 13.4317 14.8528 13.0098 14.7591 12.515C14.6653 12.015 14.6184 11.4473 14.6184 10.8119V9.58533H16.6028V10.9681C16.6028 11.7077 16.6653 12.239 16.7903 12.5619C16.9153 12.8848 17.1627 13.0463 17.5325 13.0463C17.7825 13.0463 17.97 12.989 18.095 12.8744C18.2252 12.7546 18.3111 12.5671 18.3528 12.3119C18.3997 12.0515 18.4231 11.7129 18.4231 11.2963C18.4231 10.7806 18.3138 10.3093 18.095 9.8822C17.8815 9.45512 17.5559 9.01241 17.1184 8.55408L16.1028 7.5072C15.8216 7.21554 15.5664 6.90564 15.3372 6.57751C15.1132 6.24939 14.9335 5.88481 14.7981 5.48376C14.6679 5.07751 14.6028 4.62439 14.6028 4.12439C14.6028 3.40043 14.6914 2.78845 14.8684 2.28845C15.0455 1.78845 15.345 1.41085 15.7669 1.15564C16.1888 0.895223 16.7669 0.765015 17.5013 0.765015C18.0533 0.765015 18.5065 0.850952 18.8606 1.02283C19.22 1.18949 19.4986 1.43689 19.6966 1.76501C19.8997 2.08793 20.0429 2.48376 20.1263 2.95251C20.2096 3.41606 20.2513 3.94731 20.2513 4.54626V5.39783H18.3216V4.41345C18.3216 3.99679 18.2981 3.65043 18.2513 3.37439C18.2096 3.09835 18.1289 2.89262 18.0091 2.7572C17.8893 2.61658 17.7148 2.54626 17.4856 2.54626C17.2669 2.54626 17.0898 2.59574 16.9544 2.6947C16.819 2.78845 16.72 2.93689 16.6575 3.14001C16.6002 3.33793 16.5716 3.59574 16.5716 3.91345C16.5716 4.19991 16.608 4.44731 16.6809 4.65564C16.7539 4.86397 16.8658 5.06449 17.0169 5.2572C17.1679 5.44991 17.3554 5.66606 17.5794 5.90564L18.7122 7.1322C19.2539 7.71554 19.6757 8.32231 19.9778 8.95251C20.2799 9.58272 20.4309 10.2858 20.4309 11.0619C20.4309 11.8848 20.3424 12.5775 20.1653 13.14C19.9882 13.6973 19.6914 14.1192 19.2747 14.4056C18.858 14.6921 18.2903 14.8353 17.5716 14.8353ZM21.9862 14.6791V2.74158H20.3769V0.929077H25.6191V2.74158H24.0722V14.6791H21.9862ZM30.9797 14.8197C30.1516 14.8197 29.4849 14.4942 28.9797 13.8431C28.4745 13.1869 28.2219 12.1244 28.2219 10.6556V4.67908C28.2219 4.06449 28.2792 3.51501 28.3937 3.03064C28.5135 2.54626 28.6958 2.13741 28.9406 1.80408C29.1906 1.46554 29.5135 1.21033 29.9094 1.03845C30.3052 0.861369 30.7818 0.772827 31.3391 0.772827C31.9432 0.772827 32.4354 0.863973 32.8156 1.04626C33.1958 1.22335 33.4875 1.48376 33.6906 1.82751C33.899 2.16606 34.0422 2.58272 34.1203 3.07751C34.1984 3.57231 34.2375 4.1322 34.2375 4.7572V5.73376H32.2844V4.29626C32.2844 3.67647 32.2193 3.23637 32.0891 2.97595C31.9641 2.71554 31.7245 2.58533 31.3703 2.58533C30.9797 2.58533 30.7089 2.73897 30.5578 3.04626C30.4068 3.34835 30.3312 3.88741 30.3312 4.66345V10.6244C30.3312 11.489 30.3937 12.1088 30.5187 12.4838C30.649 12.8536 30.9172 13.0385 31.3234 13.0385C31.7193 13.0385 31.9979 12.8483 32.1594 12.4681C32.326 12.0827 32.4094 11.4421 32.4094 10.5463V8.6947H31.3547V7.17126H34.2375V14.6791H33.3L32.9797 13.3275C32.8651 13.8015 32.6203 14.1687 32.2453 14.4291C31.8755 14.6895 31.4536 14.8197 30.9797 14.8197ZM38.4569 14.8353C37.7433 14.8353 37.16 14.6843 36.7069 14.3822C36.259 14.0801 35.9282 13.6322 35.7147 13.0385C35.5011 12.4447 35.3944 11.7103 35.3944 10.8353V4.54626C35.3944 3.7546 35.4985 3.07751 35.7069 2.51501C35.9152 1.95251 36.2459 1.52022 36.6991 1.21814C37.1522 0.916056 37.7459 0.765015 38.4803 0.765015C39.0324 0.765015 39.4985 0.850952 39.8787 1.02283C40.259 1.1947 40.5662 1.4447 40.8006 1.77283C41.035 2.09574 41.2043 2.49158 41.3084 2.96033C41.4178 3.42387 41.4725 3.95251 41.4725 4.54626V10.8353C41.4725 11.7103 41.3683 12.4447 41.16 13.0385C40.9569 13.6322 40.634 14.0801 40.1912 14.3822C39.7485 14.6843 39.1704 14.8353 38.4569 14.8353ZM38.4569 13.0228C38.7173 13.0228 38.9126 12.9447 39.0428 12.7885C39.173 12.6322 39.259 12.3952 39.3006 12.0775C39.3475 11.7546 39.3709 11.3483 39.3709 10.8588V4.45251C39.3709 3.85356 39.3136 3.39262 39.1991 3.0697C39.0897 2.74158 38.8501 2.57751 38.4803 2.57751C38.1001 2.57751 37.8423 2.73637 37.7069 3.05408C37.5715 3.36658 37.5037 3.83012 37.5037 4.4447V10.8588C37.5037 11.3588 37.5246 11.7702 37.5662 12.0931C37.6131 12.4108 37.7043 12.6452 37.8397 12.7963C37.9803 12.9473 38.186 13.0228 38.4569 13.0228Z" fill="black"/>
</svg>
